<svg viewBox="0 0 1240.07 213.22" xmlns="http://www.w3.org/2000/svg"><g fill="#0a2240"><path d="m284 41.87h-8.5-8c-7 0-10.47 2.72-10.47 8.3-.39 40.05-1.45 89.66-1.77 103.91 0 8.44-4.37 13.69-11.41 13.69-6.45 0-9.34-6.71-9.34-13.37-.14-22.34-.13-50.15-.12-74.69 0-9.11 0-16.91 0-25 0-4.61-1-7.83-2.9-9.58-1.55-1.41-3.74-2-6.71-1.67a93.67 93.67 0 0 0 -23.56 5.35c-4.22 1.55-8.22 3.31-12.42 5.19-1.41.62-4.49 1.25-6 1.88v-.88c0-.48 0-.91 0-1.31-.07-.8 0-1.49 0-2.19-.13-4.93.13-9.85 0-14.78-.23-8.87.27-17.75 0-26.63a11.1 11.1 0 0 0 -4.86-9.19c-2.24-1.39-5.47-1.17-9.32.63a118.74 118.74 0 0 0 -10.62 5.89q-2.15 1.29-4.3 2.54c-6 3.46-8.93 8.7-8.93 16v51.3.62c0 1.6.05 3.26-1 4-3.67 2.5-7.51 4.87-11.59 7.37l-4.31 2.67-1.52 1v-1.8c0-3.36 0-6.6 0-9.77 0-7.57.06-14.72-.1-21.84 0-.89 0-1.8 0-2.72a39 39 0 0 0 -.81-9.63 6.39 6.39 0 0 0 -3.26-4.32 7.72 7.72 0 0 0 -6.41.12c-6.61 2.75-13.5 5.89-21.7 9.88-4.1 2-6.2 5.6-6.22 10.71v18.4c0 9.84 0 20-.11 29v.64l-.57.26a23.28 23.28 0 0 1 -2.27.87c-9 2.78-16.56 3.55-23.64 2.41a68.43 68.43 0 0 1 -33.7-15 4.18 4.18 0 0 0 -3.29-1.2 3.83 3.83 0 0 0 -2.4 2.29 27.81 27.81 0 0 0 -2.87 10.07c-.6 10.1 3.12 20.06 10.49 28.05 7.92 8.58 19 14.84 29.7 15.06 18 .39 34.09-2.59 49.55-11.53 17.15-9.9 29.24-19.54 32.54-21.49l1.48-.88.11 6.81c.06 6.87.07 14.85.07 21.6v2.61q0 8.07 0 16.16v35.57a9.82 9.82 0 0 0 3.85 8.16 9.37 9.37 0 0 0 8.71.88c3.42-1.19 6.82-2.69 10.1-4.15 1.38-.61 2.76-1.22 4.15-1.81 9-3.85 13.18-11.05 13.09-22.66-.2-26.64 0-55.78 0-83v-5a10.86 10.86 0 0 1 2-1.31c3.08-1.51 6.17-3.82 9.75-5.33l4.07-1.73 1.4-.61v7.64c0 7.07 0 16.14.06 23.21.07 16.44.15 33.45-.2 50.18 0 25.5 16 41.35 41.65 41.35 29.21 0 48.83-17.47 48.83-43.48.89-13.63 1.06-32.11 1.21-48.41.06-6.07.11-11.84.2-16.92.33-19.34.49-35.2.5-49.92a8.76 8.76 0 0 0 -2.07-6 8.11 8.11 0 0 0 -6.24-2.47zm-241.61 79.18c-2.38.46 2.12 5.52.82 6.75-1.05 1-6-1.31-7-.48-1.9 1.55-.4 8.4-1.7 7.59-5.92-3.65-8-8.59-9.28-14.87-.67-3.37-1.12-15.41 2-13.1a72.4 72.4 0 0 0 15.64 8.77c2 .72 3.94 1.36 5.95 1.94 1.85.54 4.13.95 4.17 1.88.07 1.92-8.5 1.15-10.6 1.52z"/><path d="m8.81 128.12c.17.29.34.69.54 1s.36.73.57 1.09c.37.74.78 1.46 1.18 2.18.8 1.43 1.67 2.82 2.55 4.18.48.66.89 1.36 1.37 2s1 1.27 1.42 1.92c.5.61 1 1.22 1.5 1.84a11.45 11.45 0 0 0 .79.91l.81.89a49.36 49.36 0 0 0 7.18 6.42c.65.47 1.27 1 2 1.44s1.38.88 2.07 1.35 1.42.83 2.13 1.27 1.45.85 2.18 1.32l.61.39a1 1 0 0 1 .45.68 2.06 2.06 0 0 1 -2.34 2.6c-.89-.18-1.79-.4-2.69-.64a19.39 19.39 0 0 1 -2.66-.81 33.92 33.92 0 0 1 -5.1-2.33 35.72 35.72 0 0 1 -8.9-6.92c-.64-.7-1.31-1.36-1.88-2.12s-1.14-1.48-1.69-2.22l-.05-.06c-.5-.78-1-1.57-1.49-2.36s-.89-1.65-1.32-2.49-.75-1.7-1.11-2.55a.08.08 0 0 1 0-.05c-.32-.88-.62-1.75-.89-2.63s-.49-1.81-.66-2.74a21.74 21.74 0 0 1 -.38-3.32 1 1 0 0 1 .3-.75 2.06 2.06 0 0 1 3.36.21z"/><path d="m3.84 146.27.4.67c.13.24.27.48.43.72.29.48.61 1 .92 1.43.64.93 1.31 1.84 2 2.7a30.46 30.46 0 0 0 4.75 4.68 30 30 0 0 0 5.66 3.53c1 .55 2.08.91 3.13 1.38s2.2.74 3.31 1.19l.72.29a1 1 0 0 1 .56.6 2 2 0 0 1 -1.91 2.94c-.66 0-1.32-.1-2-.17q-.49 0-1-.12a6.39 6.39 0 0 1 -1-.16 26.44 26.44 0 0 1 -3.81-1.07c-.63-.25-1.28-.46-1.89-.74l-1.83-.94a12.54 12.54 0 0 1 -1.75-1.06 19.61 19.61 0 0 1 -1.69-1.14 24.36 24.36 0 0 1 -5.55-6c-.39-.55-.7-1.15-1-1.73v-.05c-.31-.58-.59-1.18-.87-1.78-.25-.63-.5-1.25-.7-1.9a17.05 17.05 0 0 1 -.72-2.71 1.05 1.05 0 0 1 .2-.79 2 2 0 0 1 3.47 0z"/><path d="m410 117.51q0-11.72 0-23.42 0-7.43 0-14.85c0-8.87 0-22.87 0-31.89 0-4-2.21-5.51-6.15-5.51h-10.55-12.1a5.92 5.92 0 0 0 -6.2 5.51c-.08 1-.3 38.5-.29 50.89 0 4.64.08 22.26.08 22.26s-8-21-9.42-25q-3.18-8.91-6.32-17.82c-3.05-8.68-6.24-17.68-9.44-26.44-1.33-3.66-4.09-9-9.09-9.28-7.88-.39-15.52-.33-22.39-.31-6.71 0-11.22 4.71-11.22 11.73v112.28 28.83c0 5 1.39 11 7.84 11h16.25c5.5 0 9.09-1 11.27-3.24 2.39-2.42 3.42-6.59 3.34-13.52-.18-15-.63-30.23-1.06-45q-.3-10-.57-20c0-1.43 0-2.88 0-4.28 0-.66 0-1.32 0-2v-5.22s24.84 74 29.45 88.87c.9 2.9 2.39 4.2 5 4.34 6.4.34 12.45.22 18.87.09 1.5 0 3-.07 4.56-.09 5.6-.09 8-3.18 8.05-10.32.06-12.73.08-26.31.08-44.05q.01-16.73.01-33.56z"/><path d="m1154.71 134.55s12-8.29 16.89-19.29c4.93-10.7 5-22.14 4.43-31.92-1.51-25.55-19.53-42.72-44.84-42.72-8.93-.36-18-.26-26.77-.17-3.56 0-7.12.08-10.67.09-8.37 0-12 4.57-12 12.8q0 19.43 0 38.84v27.59 25.45 50.64c0 6.25 2.41 9.56 8.81 9.57h5.1a126.69 126.69 0 0 0 13.07-.24c5.46 0 7.18-2.5 7.18-10.28.15-10.45.1-23.33 0-35.79 0-5.85 0-11.48 0-16.48v-1h2.89l.24.66s3.67 9.88 5.52 14.75c1.72 4.58 3.19 8.7 4.61 12.69 2.43 6.82 4.72 13.27 8 20.95 7.34 17.41 23.32 25.93 41.26 21.21 3.84-1 5.55-1.85 6.12-3 .65-1.31-.06-3.62-1.41-6.91-9.14-22.26-28.43-67.44-28.43-67.44zm-27.71-26.16h-2c-1.21 0-2.41 0-3.64 0s-2.59 0-4 0h-1v-33.46h1 4.21c3 0 5.86-.05 8.72.07 4.6 0 10.13 2.83 10.13 16.31 0 14.1-7.28 17.08-13.42 17.08z"/><path d="m474.75 41.49c-6.5-.24-13.07-.31-19.6-.31-5.15 0-10.28 0-15.33.09h-2.87c-9 .07-11.75 2.86-11.76 12q0 28.08 0 56.17v30.27q0 26.33 0 52.64c0 4.6 1 7.85 3.12 10s5.71 3.27 10.76 3.27c2.54 0 5 0 7.48.07 7 .11 13.58.08 20.4.08 46 0 49.51-36.07 49.51-83.75 0-22.34-.16-48.58-10-63.26-6.77-10.28-18.82-16.76-31.71-17.27zm6.61 82.42c-.06 6.8-.11 29.91-.11 33.78 0 9.64-5.24 16.13-13 16.13-.91 0-1.7.05-2.42.05-1 0-1.83 0-2.66-.05s-1.72-.06-2.77-.06h-1v-1c0-11.72-.08-31.08-.16-49.8-.08-18.38-.16-37.38-.16-48.69v-1h10.88c6.85 0 11.28 6.19 11.28 15.76.48 10.13.27 17.16.12 34.88z"/><path d="m596.36 42.38q-6.63-.09-13.19-.21c-11.78-.2-23.94-.4-36-.32h-.86q-3.21 0-6.42.09c-7.3.15-10.56 3-10.56 8.39 0 5.69-.13 11.71-.09 17.27.08 11.44-.12 22.3.07 33.55.11 6.53.23 13.06.32 19.58.19 14 .21 28.36.23 42.27 0 9.88 0 20.09.1 30a12.4 12.4 0 0 0 3.54 9.14 10 10 0 0 0 8 3.16l4.46-.13h1c8.28-.15 16.7-.1 24.84-.05 4.52 0 9 .05 13.55.05h2c2.53 0 5.15 0 7.69-.16 7-.51 9.94-3.58 10-10.58.06-4.79 0-10-.06-16-.14-8.15-1.39-9.38-9.53-9.41-7.78 0-27.79 0-28 .05h-1v-1c.21-7.52.23-24.14 0-32.34v-1h5.55c5.93.19 11.94.12 17.75.05h1c4.94 0 7.77-2.48 8-6.84.3-6.55.32-12.5.05-18.17-.24-4.88-2.06-6.53-7.24-6.54s-10.61 0-16 0h-7.7l-.06-.93c0-.61-.08-1.13-.12-1.59-.07-.87-.13-1.55-.13-2.25 0-5.07 0-10.15 0-15.52v-6.2h9.45 19.14c5.76 0 8.63-2.18 9.61-7.2a78.72 78.72 0 0 0 1-14.26v-1.47c.1-7.27-3.6-11.33-10.39-11.43z"/><path d="m821 164.25c-3.58-17.69-7.15-35.68-10.6-53.08l-3.4-17.17c-2.33-11.71-4.82-24.22-7.45-37.16-2.76-13.54-3.55-14.72-15.76-14.63-.71 0-12.51.06-13.26.08-10.32.27-11.33 5.07-13.56 13-1.66 5.93-3.09 12-4.47 18-.66 2.86-1.33 5.73-2 8.59-3.49 14.32-7 28.76-10.47 43.23-5.65 23.45-11.5 47.69-17.36 71.23-.8 3.25-.53 6.05.76 7.7a4.14 4.14 0 0 0 3.46 1.55c3.08 0 5.94.06 8.7.12 5.31.11 10.34.22 16.21-.12 3.74 0 5.8-3.48 6.18-5.06 1.63-6.84 3-14.27 4.26-21.46.27-1.52 1.37-8.7 1.37-8.7l24.71-.13s3 19.89 4.16 26.05c1.11 6 3.43 8.65 7.75 8.87a145.36 145.36 0 0 0 19.41-.1c3.41-.3 5.78-1.36 7.06-3.14s1.58-4.78.66-8.56c-2.36-9.84-4.57-20.24-6.36-29.11zm-52.62-21.66.18-1.15c.86-5.48 1.7-11 2.54-16.43 1.37-8.85 3.93-22.82 5.43-32a1.37 1.37 0 0 1 2.7 0l6.46 49.53z"/><path d="m976.87 49.64c0-5.47-2.16-7.71-7.45-7.71-9.11 0-40.69-.14-64.81 0-7 0-10.23 2.75-10.23 8.5v9.35s0 5.89 0 8.86c0 5.22 3.06 7.57 9.9 7.63h15.22s-.18 104.93-.14 120.87c0 5.57 2.83 8.65 8.13 8.91 3.82.18 7.76.1 11.58 0 2.09 0 4.17-.08 6.2-.08 4.39-.14 6.73-2.07 6.91-5.73.09-1.79-.22-123.92-.22-123.92l17.58-.05c6.64 0 7.3-6.79 7.35-8.87.08-3.63 0-7.34 0-10.93.01-2.24-.02-4.54-.02-6.83z"/><path d="m903.38 175.67c0-5.59-4.77-6.09-9-6.09h-21.89v-4.1q0-30.31 0-60.63c0-8.41.07-16 .2-23.2.06-3.68.18-7.42.28-11 .2-6.73.41-13.7.32-20.53-.08-5.88-3.29-8.89-9.55-8.94h-2.57c-1.56 0-4.15 0-5.74 0-2.15 0-4.31 0-6.44.16-6.35.36-9.1 3.26-9.19 9.7q-.12 8.72-.26 17.43c-.25 16.47-.5 33.51-.6 50.27-.15 24-.07 47.35 0 70.91v1.22a38.75 38.75 0 0 0 1 8.16c.86 3.85 4.2 6.77 7.77 6.78 13.27.07 29.94.12 45.56 0 5.89 0 8.63-2.34 9.45-7.91.94-6.42.8-13.15.66-19.67z"/><path d="m713.31 175.86c-.27-20.29-.42-39.44-.56-62 0-6.43-.07-18.72-.09-28.42.21-9.69 0-24.47-.11-34.25v-.18c-.08-6.21-2.64-8.89-8.56-8.94h-2c-4.51-.05-10.68-.11-14.62.11-6.35.37-8.67 3.27-8.76 9.7-.06 4.7-.12 10.94 0 17 .07 3.5 0 7 0 10.23v23.44a61.16 61.16 0 0 0 -12.2-1c-7.77 0-11.37 1-11.37 1s0-20.59 0-22.36c0 0 .13-19.22 0-29.2-.08-6-2.76-8.89-8.81-8.94h-1.77c-4.81-.06-11.41-.14-15.16.08-6.35.36-9.1 3.26-9.19 9.69s-.18 12.62-.27 18.92l-.14 9.46c.06 2.32.1 11.76.1 14.11 0 20.45-.2 41.6-.36 62l-.17 18.35v11.28 6.85 1.5 2.05c.08 6 3.06 8.89 9.11 8.94h2.77c4.82.06 10.41.14 14.16-.08 6.35-.36 9.62-3.26 9.71-9.69v-4.51c0-.74 0-1.52 0-2.35v-51.45s3.58-2 11.37-2 12.2 2 12.2 2v58.3a14.84 14.84 0 0 0 0 1.76c.36 5.5 3 8 8.52 8h2.06c4.5.05 10.67.11 14.59-.11 6.57-.38 9.66-3.46 9.75-9.7.07-4.72-.06-11-.18-17.06z"/><path d="m1239.94 45.38c-.06-3.73-3-4.47-5.45-4.46-3.4 0-3.78 2.08-3.94 4.74-.13 2.27-.11 4.59-.1 6.84v4.06 2 .51h-.45-2c-.86 0-1.77 0-2.7 0h-.5v-.49c0-1.53 0-3 0-4.46 0-3.3 0-6.42 0-9.55a3.6 3.6 0 0 0 -.82-2.71 4.2 4.2 0 0 0 -3.06-.92h-.21c-2.14 0-3.38.31-4.14 1.05s-1.16 2.15-1.18 4.48q0 9 0 18.06 0 9.33 0 18.64c0 2.94.68 4.67 4.28 4.78 1.91.06 3.25-.29 4.07-1.06a4.89 4.89 0 0 0 1.15-3.7c0-.77 0-1.67 0-2.65 0-3.75-.1-8.88.12-11.9v-.44h2.48 2.89v.44c.2 2.74.17 6.92.14 10.6v5.43a3.29 3.29 0 0 0 .87 2.49 4.47 4.47 0 0 0 3.27.76h.47c3-.14 4.82-.37 4.84-3.24.09-10.8.18-25.03-.03-39.3z"/><path d="m1197.18 58.7a6.67 6.67 0 0 1 2.82-5.7 9.81 9.81 0 0 1 5.57-1.6c2.94-.13 4-1 4.2-3.48.27-3.4.44-5.62-3.24-6.69-5.4-1-10.73.09-14.55 2.86a11.87 11.87 0 0 0 -5 7.91 113.35 113.35 0 0 0 -.68 16.47v3.55a15.62 15.62 0 0 0 4.83 11.12 15.82 15.82 0 0 0 10.75 4.74h.15c.47 0 1.11 0 1.56.08 3.51 0 5.77-.78 6.1-4.66.38-4.59-.13-5.62-5.47-6-3.12-.23-6.42-2.64-6.87-5.29a37.59 37.59 0 0 1 -.29-8.39c.06-1.44.13-3.06.12-4.92z"/><path d="m1055.9 42.38c-4.43-.06-8.82-.13-13.2-.21-11.78-.2-23.94-.4-36-.32h-.87l-6.43.15c-7.3.15-10.56 3-10.56 8.39 0 5.69-.13 11.71-.09 17.27.09 11.44-.12 22.3.07 33.55q.18 9.79.32 19.58c.19 14 .21 28.36.23 42.27 0 9.88 0 20.09.1 30a12.44 12.44 0 0 0 3.54 9.14 10 10 0 0 0 8 3.16l4.46-.13h1c8.28-.15 16.7-.1 24.84-.05q6.78 0 13.55.05h2c2.53 0 5.15 0 7.69-.16 7-.51 9.94-3.58 10-10.58.06-4.79 0-10-.06-16-.14-8.15-1.38-9.38-9.53-9.41-7.78 0-27.79 0-28 .05h-1v-1c.22-7.52.23-24.14 0-32.34v-1h5.47c5.93.19 11.94.12 17.75.05h1c4.94 0 7.78-2.48 8-6.84.3-6.55.32-12.5 0-18.17-.23-4.88-2.06-6.53-7.24-6.54s-10.6 0-16 0h-7.7l-.06-.93c0-.61-.08-1.13-.12-1.59-.07-.87-.12-1.55-.12-2.25 0-5.07 0-10.15 0-15.52v-6.26h9.53 19.14c5.76 0 8.63-2.18 9.61-7.2a78.72 78.72 0 0 0 1-14.26v-1.46c.16-7.28-3.54-11.34-10.32-11.44z"/><path d="m108.72 152.16a82.79 82.79 0 0 1 -21 8.58c-.07 11.42 0 24.4.16 34.66.11 6.32 2.12 9.08 6.92 9.52 4.51.4 9.46-1 14.14-2.68 12.79-4.45 17.92-12 18-23.82 0-9.56-.3-30.19-.44-37.44-4.99 3.38-10.98 7.26-17.78 11.18z"/></g></svg>
